<svg width="296" height="34" viewBox="0 0 296 34" fill="none" xmlns="http://www.w3.org/2000/svg">
<path d="M88.4729 0H61.2502C59.334 0 57.4434 0.427579 55.6038 1.28274C54.9268 1.5937 54.2881 1.94354 53.6749 2.35816C53.1767 2.65617 52.4741 3.21332 51.5671 4.04256C48.7695 6.93196 47.3643 10.3396 47.3643 14.2785V18.8783C47.3643 22.0398 48.284 24.9032 50.1108 27.4428C50.4557 27.9092 50.9411 28.4664 51.5671 29.1142C52.193 29.6973 52.7296 30.1638 53.1894 30.5136C55.706 32.2757 58.3759 33.1568 61.2119 33.1568H88.4346V13.1642H68.6722C68.4295 13.1642 68.1484 13.1902 67.8546 13.2549C67.037 13.54 66.4622 14.0065 66.1173 14.6413C65.7724 15.056 65.6063 15.7038 65.6063 16.5978V20.4979H79.5305V24.5923H61.033C60.6881 24.5923 60.1771 24.4886 59.5256 24.2813C59.1935 24.1647 58.8358 23.9833 58.4653 23.763C58.1587 23.5557 57.7883 23.2577 57.3667 22.882C56.3575 21.7547 55.8465 20.4849 55.8465 19.0726V14.0971C55.8465 12.931 56.2042 11.8426 56.9452 10.832C58.1076 9.34195 59.5895 8.59045 61.3524 8.59045H88.4729V0Z" fill="#2B7BC6"/>
<path d="M41.1087 0H13.8859C11.9697 0 10.0791 0.427579 8.23958 1.28274C7.56253 1.5937 6.9238 1.94354 6.31062 2.35816C5.81241 2.65617 5.10981 3.21332 4.20282 4.04256C1.4052 6.93196 0 10.3396 0 14.2785V18.8783C0 22.0398 0.919767 24.9032 2.74653 27.4428C3.09144 27.9092 3.57687 28.4664 4.20282 29.1142C4.82877 29.6973 5.3653 30.1638 5.82519 30.5136C8.34177 32.2757 11.0117 33.1568 13.8476 33.1568H41.0703V13.1642H21.3079C21.0652 13.1642 20.7842 13.1902 20.4904 13.2549C19.6728 13.54 19.0979 14.0065 18.753 14.6413C18.4081 15.056 18.242 15.7038 18.242 16.5978V20.4979H32.1663V24.5923H13.6688C13.3238 24.5923 12.8129 24.4886 12.1614 24.2813C11.8292 24.1647 11.4715 23.9833 11.1011 23.763C10.7945 23.5557 10.424 23.2577 10.0025 22.882C8.99327 21.7547 8.48229 20.4849 8.48229 19.0726V14.0971C8.48229 12.931 8.83998 11.8426 9.5809 10.832C10.7434 9.34195 12.2252 8.59045 13.9881 8.59045H41.1087V0Z" fill="#2B7BC6"/>
<path d="M96.5392 33.2086H292.866C294.593 33.2086 296 31.7816 296 30.0304L296 3.22994C296 1.46572 294.593 0.0517578 292.867 0.0517578H96.5392C96.5389 1.34177 96.5392 23.6192 96.5392 33.2086Z" fill="#EA1649"/>
<path d="M104.996 7.624H115.888C117.704 7.624 119.018 8.03335 119.83 8.85203C120.66 9.65366 121.075 10.9499 121.075 12.7408V15.2992C121.075 17.0901 120.66 18.3948 119.83 19.2135C119.018 20.0152 117.704 20.416 115.888 20.416H109.664V25.5328H104.996V7.624ZM116.407 12.7408C116.407 11.7174 115.888 11.2058 114.851 11.2058H109.664V16.8342H114.851C115.888 16.8342 116.407 16.3225 116.407 15.2992V12.7408Z" fill="#FBFAF9"/>
<path d="M125.483 7.624H136.375C138.19 7.624 139.504 8.03335 140.317 8.85203C141.146 9.65366 141.561 10.9499 141.561 12.7408V15.0433C141.561 16.459 141.319 17.5591 140.835 18.3437C140.368 19.1283 139.616 19.6485 138.579 19.9043L141.821 25.5328H136.764L133.781 20.1601H130.151V25.5328H125.483V7.624ZM136.893 12.7408C136.893 11.7174 136.375 11.2058 135.337 11.2058H130.151V16.5784H135.337C136.375 16.5784 136.893 16.0667 136.893 15.0433V12.7408Z" fill="#FBFAF9"/>
<path d="M157.892 12.485C157.892 11.4616 157.374 10.9499 156.336 10.9499H151.928C150.89 10.9499 150.372 11.4616 150.372 12.485V20.6718C150.372 21.6952 150.89 22.2069 151.928 22.2069H156.336C157.374 22.2069 157.892 21.6952 157.892 20.6718V12.485ZM162.561 20.6718C162.561 22.4627 162.146 23.7675 161.316 24.5862C160.503 25.3878 159.189 25.7886 157.374 25.7886H150.89C149.075 25.7886 147.752 25.3878 146.923 24.5862C146.11 23.7675 145.704 22.4627 145.704 20.6718V12.485C145.704 10.6941 146.11 9.39782 146.923 8.59619C147.752 7.77751 149.075 7.36816 150.89 7.36816H157.374C159.189 7.36816 160.503 7.77751 161.316 8.59619C162.146 9.39782 162.561 10.6941 162.561 12.485V20.6718Z" fill="#FBFAF9"/>
<path d="M182.801 15.555L179.17 21.951H175.539L171.909 15.555V25.5328H167.241V7.624H172.168L177.355 17.0901L182.542 7.624H187.469V25.5328H182.801V15.555Z" fill="#FBFAF9"/>
<path d="M195.907 25.5328H190.85L197.723 7.624H202.91L209.782 25.5328H204.725L203.558 22.3348H197.074L195.907 25.5328ZM198.241 19.0089H202.391L200.316 12.9966L198.241 19.0089Z" fill="#FBFAF9"/>
<path d="M213.152 7.624H224.044C225.86 7.624 227.174 8.03335 227.986 8.85203C228.816 9.65366 229.231 10.9499 229.231 12.7408V15.0433C229.231 16.459 228.989 17.5591 228.505 18.3437C228.038 19.1283 227.286 19.6485 226.249 19.9043L229.49 25.5328H224.433L221.451 20.1601H217.82V25.5328H213.152V7.624ZM224.563 12.7408C224.563 11.7174 224.044 11.2058 223.007 11.2058H217.82V16.5784H223.007C224.044 16.5784 224.563 16.0667 224.563 15.0433V12.7408Z" fill="#FBFAF9"/>
<path d="M238.56 25.5328H233.892V7.624H238.56V14.6596H240.894L244.94 7.624H249.867L244.784 16.4505L249.841 25.5328H244.914L240.894 18.2413H238.56V25.5328Z" fill="#FBFAF9"/>
<path d="M267.885 25.5328H253.492V7.624H267.885V11.2058H258.16V14.6596H265.811V18.2413H258.16V21.951H267.885V25.5328Z" fill="#FBFAF9"/>
<path d="M280.846 25.5328H276.178V11.2058H270.732V7.624H286.292V11.2058H280.846V25.5328Z" fill="#FBFAF9"/>
</svg>
